<svg width="32" height="30" viewBox="0 0 32 30" fill="none" xmlns="http://www.w3.org/2000/svg">
<path fill-rule="evenodd" clip-rule="evenodd" d="M31.1813 8.98628C31.6802 10.2215 31.3531 11.6223 30.3521 12.5373C29.6274 13.1566 29.2132 14.0418 29.2132 14.9711C29.2132 15.9004 29.6274 16.7856 30.3521 17.4049C31.3974 18.313 31.7535 19.7409 31.2492 21.0023C30.7448 22.2636 29.4832 23.1003 28.0709 23.1102H27.6932C26.7554 23.117 25.861 23.4891 25.2166 24.1406C24.5723 24.7921 24.2336 25.6666 24.2789 26.5622C24.329 27.4626 23.9874 28.3427 23.3349 28.9938C22.6825 29.645 21.7775 30.0091 20.8344 29.9998C19.8744 30.0002 18.9608 29.6055 18.3266 28.9165C17.6763 28.2279 16.7514 27.8348 15.781 27.8348C14.8106 27.8348 13.8856 28.2279 13.2354 28.9165C12.6012 29.6055 11.6875 30.0002 10.7275 29.9998C9.77892 30.0096 8.86882 29.6416 8.21542 28.984C7.56201 28.3264 7.22424 27.4386 7.28306 26.5333C7.3241 25.6402 6.98356 24.7694 6.33966 24.1211C5.69577 23.4728 4.80385 23.1027 3.86878 23.0957H3.4911C2.13996 23.0344 0.952747 22.2195 0.459964 21.0151C-0.0328195 19.8108 0.260902 18.442 1.20988 17.5204C1.92947 16.9014 2.34038 16.0194 2.34038 15.0939C2.34038 14.1684 1.92947 13.2864 1.20988 12.6673C0.105098 11.7705 -0.290693 10.3064 0.221167 9.01008C0.733027 7.71373 2.04201 6.86497 3.4911 6.88984H3.86878C4.81634 6.88783 5.72081 6.51107 6.36755 5.84896C7.01429 5.18685 7.34567 4.29841 7.28306 3.39446C7.25002 2.50384 7.59928 1.63902 8.24978 1.00073C8.90028 0.362443 9.79546 0.00617777 10.7275 0.0146243C11.6912 0.0121277 12.6077 0.41328 13.2354 1.11235C13.892 1.79512 14.8184 2.18292 15.7885 2.18118C16.7534 2.17888 17.6735 1.79143 18.3266 1.11235C18.9514 0.407901 19.8683 0.00129051 20.8344 0.000180527C21.7802 -0.00932267 22.6878 0.356739 23.3407 1.01108C23.9936 1.66542 24.3334 2.5494 24.2789 3.45223C24.2335 4.34649 24.5726 5.21959 25.2174 5.86883C25.8623 6.51806 26.7567 6.88695 27.6932 6.88984H28.0709C29.4553 6.92408 30.6824 7.75111 31.1813 8.98628ZM28.6903 20.0481C28.8149 19.7965 28.7394 19.496 28.509 19.3259V19.2392C27.2429 18.1235 26.5227 16.5523 26.5227 14.9061C26.5227 13.2599 27.2429 11.6887 28.509 10.573C28.7394 10.4029 28.8149 10.1024 28.6903 9.85081C28.6035 9.59555 28.3515 9.42517 28.0709 9.43194H27.6932C26.0078 9.42874 24.3973 8.76586 23.2365 7.59758C22.0859 6.42955 21.476 4.86762 21.5445 3.26446C21.5698 3.09208 21.5146 2.91775 21.3934 2.78782C21.2471 2.64206 21.0457 2.55876 20.8344 2.55672C20.6191 2.53765 20.4084 2.62475 20.2754 2.78782C19.1152 4.01175 17.4709 4.71393 15.7432 4.72328C14.0159 4.71215 12.3724 4.01028 11.211 2.78782C11.0939 2.64574 10.9167 2.561 10.7275 2.55672C10.5163 2.55876 10.3148 2.64206 10.1686 2.78782C10.0474 2.91775 9.99213 3.09208 10.0175 3.26446C10.1173 4.88403 9.51435 6.47131 8.35071 7.65217C7.18707 8.83302 5.56571 9.50299 3.86878 9.50416H3.53642C3.24083 9.48241 2.96734 9.65474 2.87169 9.92302C2.7471 10.1746 2.82255 10.4751 3.05298 10.6452C4.33008 11.7566 5.06389 13.3273 5.07737 14.9783C5.06759 16.6301 4.33315 18.2022 3.05298 19.3114C2.82255 19.4815 2.7471 19.7821 2.87169 20.0336C2.94841 20.2977 3.20463 20.4769 3.4911 20.4669H3.86878C5.55325 20.4731 7.16209 21.1365 8.32287 22.3035C9.48366 23.4706 10.0958 25.0401 10.0175 26.6489C9.99021 26.817 10.046 26.9877 10.1686 27.1111C10.3318 27.2667 10.5583 27.3459 10.788 27.3277C10.9737 27.3233 11.149 27.2447 11.2714 27.1111C12.435 25.8684 14.0969 25.1582 15.8414 25.1582C17.5859 25.1582 19.2479 25.8684 20.4114 27.1111C20.5167 27.2365 20.6679 27.3191 20.8344 27.3422C21.0457 27.3401 21.2471 27.2568 21.3934 27.1111C21.5159 26.9877 21.5718 26.817 21.5445 26.6489C21.4828 25.0468 22.0918 23.4873 23.2365 22.3157C24.4013 21.1531 26.0092 20.4913 27.6932 20.4814H28.0255C28.3268 20.5069 28.605 20.3255 28.6903 20.0481Z" fill="#F9CF13"/>
<path d="M15.7383 3.35712C22.521 3.35721 27.9784 8.59206 27.9785 14.9997C27.9785 21.4075 22.5211 26.6432 15.7383 26.6432C8.9554 26.6432 3.49805 21.4075 3.49805 14.9997C3.4982 8.592 8.9555 3.35712 15.7383 3.35712Z" fill="#F9CF13" stroke="white"/>
<path d="M11.9912 14.4898L15.7383 18.5714L19.4854 11.4285" stroke="white" stroke-linecap="round" stroke-linejoin="round"/>
</svg>
