<svg width="23" height="23" viewBox="0 0 23 23" fill="none" xmlns="http://www.w3.org/2000/svg">
<path fill-rule="evenodd" clip-rule="evenodd" d="M13.9538 13.7617H14.0113C15.8941 12.9306 17.3958 11.4221 18.2184 9.53544V13.7138C18.226 16.3919 16.64 18.818 14.1838 19.8854H14.1167C13.3045 20.2293 12.4303 20.4022 11.5484 20.3934C10.6959 20.3957 9.85175 20.2262 9.06627 19.895L8.8171 19.7896C6.36619 18.7642 4.77658 16.3609 4.7921 13.7042V13.5317C4.81049 12.1712 5.36494 10.8729 6.33502 9.91877L6.50752 9.75585C8.03246 8.26233 9.29012 6.51847 10.2259 4.60002L11.5388 1.91669C11.5388 1.91669 12.8996 3.83335 14.1646 5.75002C15.7073 8.03909 15.1943 11.1345 12.9954 12.8034H12.8804C12.6522 13.0906 12.677 13.5038 12.9379 13.7617C13.0471 13.8539 13.1885 13.8987 13.3309 13.8863C13.5437 13.8773 13.7539 13.8353 13.9538 13.7617ZM13.5321 18.5534H13.5992V18.5438C15.5153 17.7039 16.7581 15.8154 16.7713 13.7234C16.125 14.2922 15.3859 14.746 14.5863 15.065L14.4617 15.1129C14.101 15.2534 13.718 15.328 13.3309 15.3334C12.8063 15.3519 12.2971 15.1544 11.9221 14.7871C11.1392 14.0133 11.0648 12.774 11.7496 11.9121C11.8332 11.8076 11.9298 11.7142 12.0371 11.6342H12.1042C13.7202 10.4288 14.1003 8.16462 12.9667 6.49752C12.5546 5.88419 12.1425 5.27085 11.7592 4.7246L11.5196 5.22294C10.5053 7.26724 9.15074 9.12413 7.51378 10.7142L7.34128 10.8771C6.64523 11.564 6.24613 12.4964 6.22961 13.4742V13.6563C6.20365 15.7446 7.44702 17.64 9.37295 18.4479L9.62211 18.5534C10.8715 19.0838 12.2828 19.0838 13.5321 18.5534Z" fill="white"/>
</svg>
