<svg width="24" height="24" viewBox="0 0 24 24" fill="none" xmlns="http://www.w3.org/2000/svg">
<path fill-rule="evenodd" clip-rule="evenodd" d="M21.8038 7.2904C22.1367 8.15502 21.9184 9.13563 21.2505 9.77614C20.767 10.2096 20.4907 10.8293 20.4907 11.4798C20.4907 12.1303 20.767 12.7499 21.2505 13.1834C21.948 13.8191 22.1856 14.8186 21.8491 15.7016C21.5126 16.5845 20.6708 17.1702 19.7285 17.1771H19.4765C18.8508 17.1819 18.2541 17.4424 17.8242 17.8984C17.3943 18.3545 17.1684 18.9666 17.1986 19.5935C17.232 20.2238 17.0041 20.8399 16.5688 21.2957C16.1335 21.7515 15.5297 22.0063 14.9005 21.9999C14.26 22.0001 13.6504 21.7239 13.2273 21.2416C12.7934 20.7595 12.1763 20.4844 11.5289 20.4844C10.8814 20.4844 10.2643 20.7595 9.83048 21.2416C9.40736 21.7239 8.79776 22.0001 8.15729 21.9999C7.52438 22.0067 6.91716 21.7491 6.48122 21.2888C6.04528 20.8285 5.81992 20.207 5.85917 19.5733C5.88655 18.9481 5.65935 18.3386 5.22974 17.8848C4.80014 17.431 4.20507 17.1719 3.5812 17.167H3.32922C2.42776 17.1241 1.63566 16.5536 1.30688 15.7106C0.978103 14.8675 1.17407 13.9094 1.80721 13.2643C2.28732 12.831 2.56147 12.2136 2.56147 11.5657C2.56147 10.9179 2.28732 10.3005 1.80721 9.86713C1.07012 9.23933 0.806053 8.2145 1.14756 7.30706C1.48907 6.39961 2.36241 5.80548 3.32922 5.82289H3.5812C4.2134 5.82148 4.81685 5.55775 5.24835 5.09427C5.67985 4.6308 5.90094 4.00889 5.85917 3.37612C5.83712 2.75269 6.07015 2.14732 6.50415 1.70051C6.93816 1.25371 7.53541 1.00432 8.15729 1.01024C8.80023 1.00849 9.41168 1.2893 9.83048 1.77864C10.2686 2.25659 10.8866 2.52805 11.5339 2.52683C12.1777 2.52522 12.7915 2.254 13.2273 1.77864C13.6442 1.28553 14.2559 1.0009 14.9005 1.00013C15.5315 0.993474 16.137 1.24972 16.5726 1.70776C17.0083 2.1658 17.2349 2.78458 17.1986 3.41656C17.1683 4.04254 17.3945 4.65371 17.8248 5.10818C18.255 5.56264 18.8518 5.82086 19.4765 5.82289H19.7285C20.6522 5.84685 21.4709 6.42578 21.8038 7.2904ZM20.1418 15.0337C20.2249 14.8576 20.1746 14.6472 20.0208 14.5281V14.4675C19.1761 13.6865 18.6956 12.5866 18.6956 11.4343C18.6956 10.2819 19.1761 9.1821 20.0208 8.40109C20.1746 8.28203 20.2249 8.07165 20.1418 7.89556C20.0839 7.71688 19.9158 7.59762 19.7285 7.60236H19.4765C18.3521 7.60012 17.2775 7.1361 16.5031 6.31831C15.7354 5.50068 15.3285 4.40733 15.3742 3.28512C15.3911 3.16445 15.3543 3.04242 15.2734 2.95147C15.1758 2.84944 15.0414 2.79113 14.9005 2.7897C14.7568 2.77635 14.6162 2.83732 14.5275 2.95147C13.7534 3.80822 12.6564 4.29975 11.5037 4.3063C10.3512 4.29851 9.25468 3.8072 8.47983 2.95147C8.40173 2.85202 8.28347 2.7927 8.15729 2.7897C8.01635 2.79113 7.88192 2.84944 7.78435 2.95147C7.70349 3.04242 7.66663 3.16445 7.68355 3.28512C7.75015 4.41882 7.34786 5.52992 6.57149 6.35652C5.79512 7.18312 4.71337 7.65209 3.5812 7.65291H3.35945C3.16224 7.63768 2.97977 7.75832 2.91596 7.94612C2.83283 8.1222 2.88317 8.33259 3.03691 8.45165C3.88898 9.22963 4.37857 10.3291 4.38756 11.4848C4.38103 12.6411 3.89102 13.7415 3.03691 14.518C2.88317 14.6371 2.83283 14.8475 2.91596 15.0235C2.96714 15.2084 3.13809 15.3339 3.32922 15.3269H3.5812C4.70506 15.3312 5.77845 15.7955 6.55292 16.6125C7.32738 17.4294 7.73577 18.5281 7.68355 19.6542C7.66534 19.7719 7.70257 19.8914 7.78435 19.9777C7.89325 20.0867 8.04434 20.1421 8.1976 20.1294C8.32152 20.1263 8.43849 20.0713 8.52015 19.9777C9.29645 19.1079 10.4053 18.6107 11.5692 18.6107C12.7331 18.6107 13.8419 19.1079 14.6182 19.9777C14.6885 20.0656 14.7894 20.1234 14.9005 20.1395C15.0414 20.1381 15.1758 20.0798 15.2734 19.9777C15.3552 19.8914 15.3924 19.7719 15.3742 19.6542C15.3331 18.5327 15.7394 17.4411 16.5031 16.621C17.2803 15.8072 18.353 15.3439 19.4765 15.337H19.6983C19.8993 15.3548 20.0849 15.2279 20.1418 15.0337Z" fill="white"/>
<circle cx="11.5" cy="11.5002" r="5" stroke="white"/>
<path d="M9.5 11.0002L11.5 13.0002L13.5 9.50021" stroke="white" stroke-linecap="round" stroke-linejoin="round"/>
</svg>
