<svg width="22" height="22" viewBox="0 0 22 22" fill="none" xmlns="http://www.w3.org/2000/svg">
<path fill-rule="evenodd" clip-rule="evenodd" d="M18.2767 7.03032C16.9694 3.89107 13.9062 1.84264 10.5056 1.83355C6.84059 1.81425 3.58175 4.16182 2.43929 7.64427C1.29683 11.1267 2.53174 14.9485 5.49595 17.104C8.46016 19.2595 12.4765 19.2563 15.4373 17.0961L18.0773 19.7361C18.3457 20.0041 18.7805 20.0041 19.0489 19.7361C19.317 19.4676 19.317 19.0328 19.0489 18.7644L16.4914 16.2069C18.8804 13.7867 19.5841 10.1696 18.2767 7.03032ZM17.051 12.9884C15.9533 15.6336 13.3695 17.3564 10.5056 17.3527V17.3161C6.61868 17.3111 3.46328 14.1721 3.43811 10.2852C3.4344 7.42131 5.15721 4.83751 7.80241 3.73983C10.4476 2.64214 13.4936 3.24701 15.5187 5.2721C17.5438 7.29719 18.1487 10.3432 17.051 12.9884Z" fill="white"/>
</svg>
